<svg t="1671544075508" class="icon" viewBox="0 0 1024 1024" version="1.1" xmlns="http://www.w3.org/2000/svg" p-id="5431" width="200" height="200"><path d="M725.681633 902.791837c-38.661224 0-82.02449-7.314286-127.477551-21.420408-109.191837-33.959184-216.816327-105.012245-303.020409-200.09796C166.138776 538.644898 104.489796 396.538776 116.506122 270.106122c3.657143-31.346939 13.583673-71.053061 60.604082-102.922449 36.04898-29.257143 77.322449-45.97551 109.714286-45.453061 33.959184 0.522449 45.453061 12.538776 80.457143 63.216327 53.812245 74.187755 57.469388 110.759184 55.379591 131.657143-3.657143 34.481633-22.465306 49.632653-39.706122 63.216326-4.179592 3.134694-8.359184 6.791837-12.016326 9.926531-20.897959 26.644898-46.497959 63.738776 63.216326 177.110204 93.518367 89.861224 144.195918 100.832653 165.616327 99.265306 16.718367-1.044898 22.987755-9.926531 25.6-13.061225l0.522449-0.522448c35.004082-49.110204 46.497959-61.126531 79.934693-66.351021 32.391837-5.22449 49.110204 5.22449 118.07347 48.587755 62.171429 39.183673 90.906122 65.306122 84.636735 106.579592-2.089796 44.930612-36.571429 106.057143-75.232654 133.746939-26.644898 18.285714-63.738776 27.689796-107.624489 27.689796z" fill="#16C4AF" p-id="5432"></path></svg>