<svg t="1671455543827" class="icon" viewBox="0 0 1024 1024" version="1.1" xmlns="http://www.w3.org/2000/svg" p-id="2479"
     width="200" height="200">
    <path d="M513.82 959.36c-114.56 0-208.3-93.74-208.3-208.3V273.18c0-114.56 93.74-208.3 208.3-208.3 114.56 0 208.3 93.74 208.3 208.3v477.88c0.02 114.56-93.72 208.3-208.3 208.3z"
          fill="#3A2B2B" p-id="2480"></path>
    <path d="M513.82 273.4m-100.24 0a100.24 100.24 0 1 0 200.48 0 100.24 100.24 0 1 0-200.48 0Z" fill="#E95456"
          p-id="2481"></path>
    <path d="M513.82 512.12m-100.24 0a100.24 100.24 0 1 0 200.48 0 100.24 100.24 0 1 0-200.48 0Z" fill="#F5B443"
          p-id="2482"></path>
    <path d="M513.82 750.84m-100.24 0a100.24 100.24 0 1 0 200.48 0 100.24 100.24 0 1 0-200.48 0Z" fill="#35B387"
          p-id="2483"></path>
    <path d="M213.64 327.62H98c-14.5 0-26.28-11.76-26.28-26.28 0-14.5 11.76-26.28 26.28-26.28h115.64c14.5 0 26.28 11.76 26.28 26.28 0 14.5-11.78 26.28-26.28 26.28zM213.6 253.46c-5.08 0-10.2-1.46-14.72-4.52l-72.4-49.06c-12.02-8.14-15.16-24.46-7.02-36.48 8.14-12.02 24.48-15.14 36.48-7.02l72.4 49.04c12.02 8.14 15.16 24.46 7.02 36.48-5.06 7.54-13.32 11.56-21.76 11.56zM141.26 450.8c-8.42 0-16.7-4.04-21.78-11.54-8.14-12.02-5-28.34 7.02-36.48l72.4-49.06c12.02-8.12 28.36-5 36.48 7.02 8.14 12.02 5 28.34-7.02 36.48l-72.4 49.06a26.044 26.044 0 0 1-14.7 4.52zM812.08 741.96h115.64c14.5 0 26.28-11.76 26.28-26.28 0-14.5-11.76-26.28-26.28-26.28h-115.64c-14.5 0-26.28 11.76-26.28 26.28 0.02 14.52 11.78 26.28 26.28 26.28zM812.12 667.82c5.08 0 10.2-1.46 14.72-4.52l72.4-49.04c12.02-8.14 15.16-24.46 7.02-36.48-8.14-12.02-24.48-15.14-36.48-7.02l-72.4 49.04c-12.02 8.14-15.16 24.46-7.02 36.48 5.06 7.5 13.34 11.54 21.76 11.54zM884.46 865.16c8.42 0 16.7-4.04 21.78-11.54 8.14-12.02 5-28.34-7.02-36.48l-72.4-49.06c-12.02-8.12-28.36-5-36.48 7.02-8.14 12.02-5 28.34 7.02 36.48l72.4 49.06c4.5 3.06 9.64 4.52 14.7 4.52z"
          fill="#DB5254" p-id="2484"></path>
</svg>